# xmcd CD database file
#
# Track frame offsets:
#	150
#	22588
#	46775
#	64175
#	85180
#	93903
#	112155
#	128255
#	142978
#	158443
#	170300
#
# Disc length: 2566 seconds
#
# Revision: 8
# Processed by: cddbd v1.5.2PL0 Copyright (c) Steve Scherf et al.
# Submitted via: CDex 1.70beta3
#
DISCID=740a040b
DTITLE=Godiego - Magic Monkey
DYEAR=1978
DGENRE=JPop
TTITLE0=The Birth Of The Odyssey ～ Monkey Magic
TTITLE1=Gandhara
TTITLE2=Asiatic Fever
TTITLE3=We're Heading Out West To India
TTITLE4=Thank You, Baby
TTITLE5=Steppin' Into Your World
TTITLE6=Havoc In Heaven
TTITLE7=Dragons And Demons
TTITLE8=A Fool !
TTITLE9=Flying
TTITLE10=Celebration
EXTD=YEAR: 1978
EXTT0=
EXTT1=
EXTT2=
EXTT3=
EXTT4=
EXTT5=
EXTT6=
EXTT7=
EXTT8=
EXTT9=
EXTT10=
PLAYORDER=
